<?xml version="1.0" encoding="UTF-8"?>
<svg width="180px" height="184px" viewBox="0 0 180 184" version="1.1" xmlns="http://www.w3.org/2000/svg" xmlns:xlink="http://www.w3.org/1999/xlink">
    <!-- Generator: Sketch 61 (89581) - https://sketch.com -->
    <title>Group 3</title>
    <desc>Created with Sketch.</desc>
    <defs>
        <polygon id="path-1" points="0 0 223 0 223 369 0 369"></polygon>
    </defs>
    <g id="Banners" stroke="none" stroke-width="1" fill="none" fill-rule="evenodd">
        <g id="Background-1-Desktop-Copy" transform="translate(-1120.000000, -128.000000)">
            <g id="Planet-Desktop">
                <g id="Group">
                    <g id="Group-3" transform="translate(1120.000000, -57.857143)">
                        <mask id="mask-2" fill="white">
                            <use xlink:href="#path-1"></use>
                        </mask>
                        <g id="Clip-2"></g>
                        <path d="M25.1463637,196.520516 C36.205584,195.039159 63.8299112,207.960229 71.7184503,218.302871 C58.6107679,218.592118 30.1798458,205.29296 25.1463637,196.520516 M214.94577,63.7210837 C205.697778,35.9265263 188.672644,14.5160604 162.213857,1.12186461 C161.516596,0.768570233 160.862656,0.361558577 160.171583,0 C159.589845,0.307841303 159.041113,0.665267782 158.484129,1.01443007 C158.409864,1.16111955 158.308782,1.29541273 158.238644,1.44416826 C158.234518,1.45449851 158.22214,1.47929109 158.215952,1.49375344 C158.19326,1.55366886 158.166442,1.61565033 158.154065,1.65490526 C158.007598,2.0867095 157.85907,2.51438165 157.737358,2.95238404 C157.500124,3.80566228 157.324778,4.67340287 157.1845,5.54527555 C157.161808,6.63614943 157.116425,5.96674955 157.172123,5.60105887 C157.176249,5.58246443 157.182438,5.56386999 157.1845,5.54527555 C157.186563,5.49775642 157.186563,5.49362433 157.188626,5.437841 C157.182438,5.71262552 157.12055,6.01220263 157.089607,6.2849211 C157.044223,6.74565003 157.005028,7.20431291 156.969959,7.66504184 C174.828505,16.6378927 189.178055,29.4122737 199.16044,47.04187 C208.426998,63.4008461 213.167548,80.9994516 214.93133,99.6579402 C217.027239,121.855571 215.08811,143.367273 206.47343,164.116603 C197.400784,185.965072 182.30859,202.514124 161.252544,212.716274 C140.029403,222.996934 117.158003,226.029894 93.6759844,223.381219 C91.6584658,223.153954 89.4140279,221.996966 87.9101719,220.589987 C75.3986683,208.892018 61.1502009,199.871648 45.7176273,192.636344 C36.6821144,188.400943 27.1123098,186.456791 17.1629311,186.258451 C14.5471707,186.206799 12.2325942,186.737774 10.9824752,189.340996 C9.67459507,192.064048 10.0459175,194.605289 12.0324926,196.877943 C13.0020568,197.987411 13.9035452,199.218776 15.0690851,200.082385 C19.8034463,203.5988 24.4160963,207.348679 29.4598928,210.365111 C44.8099503,219.544566 61.3049185,225.794365 79.0995154,228.098009 C83.8710089,228.715758 87.2933641,230.874779 90.3691517,234.300288 C100.093674,245.132583 107.280826,257.479292 110.020361,271.757757 C114.725841,296.290023 105.102401,314.188206 85.5564002,326.613424 C73.9690769,333.978889 60.6035317,338.096525 46.635619,339.154342 C40.1457277,339.646061 33.6434591,339.93944 27.1473791,340.323726 L26.6729116,338.662622 C29.6269879,336.633762 32.6223223,334.662751 35.5207003,332.561579 C37.5959802,331.057496 39.3535732,329.288958 37.9507995,326.379961 C36.6883032,323.766409 33.5980752,322.933791 30.2747393,324.344902 C29.3773767,324.727122 28.5377754,325.276691 27.7394322,325.851052 C19.5517722,331.733094 11.2939735,337.526295 3.22802479,343.577753 C-1.5744122,347.180942 -0.920472112,351.65807 4.53796787,354.33567 C5.40851272,354.761276 6.40283172,354.934824 7.34557816,355.207543 C21.1835281,359.190885 35.9374066,360.358203 48.3602054,368.800079 C49.3194551,369.450885 52.8016345,368.393067 53.2410327,367.345581 C53.9486083,365.655552 53.4947697,363.147369 52.7418103,361.312717 C52.3189153,360.275561 50.3756612,359.713596 49.0141455,359.238404 C40.436597,356.238501 31.8239791,353.337768 23.2381789,350.364724 C21.5837311,349.792428 19.9932333,349.032122 17.8725696,348.154051 C19.153632,347.457793 19.5620867,347.069376 20.0035478,347.028055 C21.4661457,346.885497 22.941121,346.83178 24.4119704,346.811119 C42.1549947,346.56526 59.7969368,345.707849 76.5765857,338.972529 C90.8993176,333.226847 103.136455,324.772575 110.513395,310.865999 C121.488036,290.180716 119.468454,269.534688 108.823877,249.376248 C105.677951,243.417763 101.779065,237.858025 97.8492361,231.50699 C101.116874,231.302451 103.551099,231.213611 105.970883,230.992544 C115.726349,230.093813 125.57052,229.697131 135.202211,228.054622 C142.645164,226.786068 149.964342,224.335734 157.081355,221.70772 C170.630499,216.707881 182.991411,209.286633 192.736562,198.667141 C209.520337,180.376409 218.566164,158.236628 221.687335,133.70023 C224.715676,109.891081 222.518685,86.4703493 214.94577,63.7210837" id="Fill-1" fill="#E8E3D9" mask="url(#mask-2)"></path>
                    </g>
                </g>
            </g>
        </g>
    </g>
</svg>