<?xml version="1.0" encoding="UTF-8"?>
<svg width="310px" height="294px" viewBox="0 0 310 294" version="1.1" xmlns="http://www.w3.org/2000/svg" xmlns:xlink="http://www.w3.org/1999/xlink">
    <!-- Generator: Sketch 61 (89581) - https://sketch.com -->
    <title>Group 3</title>
    <desc>Created with Sketch.</desc>
    <defs>
        <polygon id="path-1" points="4.77293446e-05 0.000258781207 666.742 0.000258781207 666.742 379.162913 4.77293446e-05 379.162913"></polygon>
    </defs>
    <g id="Banners" stroke="none" stroke-width="1" fill="none" fill-rule="evenodd">
        <g id="Background-1-Desktop-Copy" transform="translate(0.000000, -100.000000)">
            <g id="Planet-Desktop">
                <g id="Group">
                    <g id="Group-3" transform="translate(-148.000000, 100.000000)">
                        <mask id="mask-2" fill="white">
                            <use xlink:href="#path-1"></use>
                        </mask>
                        <g id="Clip-2"></g>
                        <path d="M235.8467,244.7575 C228.8147,246.9725 220.7217,249.3015 213.3107,247.9455 C210.1847,247.3725 206.6247,246.1045 205.2337,242.9795 C203.3767,238.8055 206.4297,234.0245 208.5587,230.5735 C216.8047,217.2095 229.2747,207.1595 243.5337,200.7845 C261.0937,192.9345 279.9467,190.6845 298.4787,192.7625 C284.8107,216.9065 262.3667,236.4075 235.8467,244.7575 M663.9557,374.4775 C621.1447,374.5985 576.9627,370.2595 537.3987,352.8395 C498.0637,335.5205 467.6797,304.7635 437.9537,274.6355 C409.8247,246.1255 380.6227,217.0675 343.8857,199.8465 C332.4917,194.5055 320.4677,190.6115 308.2127,188.4255 C321.3787,160.8435 323.0977,129.2395 313.9327,99.6535 C302.8657,63.9225 277.4507,34.2925 244.2697,17.2275 C210.0477,-0.3745 169.6307,-4.3605 132.3637,4.6855 C92.2247,14.4285 57.0967,37.5415 24.3837,61.9145 C16.2307,67.9885 8.1827,74.2035 0.1477,80.4315 C-0.3233,80.7965 0.4507,81.2255 0.8207,80.9435 C32.5847,56.6865 64.9917,32.2055 102.2707,17.0025 C137.8907,2.4775 176.5697,-1.3045 213.7647,9.4575 C249.4487,19.7815 280.4217,43.4625 297.7817,76.5345 C313.9127,107.2655 318.2957,144.4745 305.7947,177.2565 C304.4827,180.6975 302.9877,184.0745 301.3387,187.3835 C281.7427,184.9415 261.7457,186.9595 242.9307,194.5775 C227.8677,200.6775 214.1057,210.5975 204.6737,223.9465 C200.5627,229.7655 194.8027,237.9745 198.4927,245.2775 C201.7427,251.7105 209.9397,253.6595 216.5427,253.9115 C224.7567,254.2265 233.2527,251.7275 240.9527,249.1065 C248.8017,246.4355 256.2687,242.7925 263.3237,238.4465 C278.2377,229.2605 291.0967,216.5485 300.6637,201.8885 C302.3977,199.2315 304.0037,196.5185 305.4977,193.7635 C317.4017,195.8005 329.0867,199.5695 340.1177,204.7445 C375.3067,221.2545 403.4927,249.1575 430.4437,276.4845 C457.6987,304.1175 485.2047,332.4705 519.7567,351.0125 C554.8117,369.8235 594.9157,377.4135 634.3677,378.8685 C644.2267,379.2335 654.0937,379.2365 663.9557,379.0015 C667.6547,378.9125 667.6877,374.4665 663.9557,374.4775" id="Fill-1" fill="#E8E3D9" mask="url(#mask-2)"></path>
                    </g>
                </g>
            </g>
        </g>
    </g>
</svg>